<svg width="190" height="190" viewBox="0 0 190 190" fill="none" xmlns="http://www.w3.org/2000/svg">
<g clip-path="url(#clip0_40000299_498)">
<path d="M146.2 0H43.22C19.3503 0 0 19.3503 0 43.22V146.2C0 170.07 19.3503 189.42 43.22 189.42H146.2C170.07 189.42 189.42 170.07 189.42 146.2V43.22C189.42 19.3503 170.07 0 146.2 0Z" fill="#9245FF"/>
<path d="M140.3 77.5599H166.74V69.3899H130.17V80.1199C130.17 85.7799 134.76 90.3699 140.42 90.3699H164.57V98.2599H140.42C134.76 98.2599 130.17 102.85 130.17 108.51V120.03H166.74V111.86H140.3V77.5699V77.5599ZM81.1299 69.3799L91.8399 120.04C96.1299 120.04 95.3199 120.04 99.6099 120.04L110.36 69.3799H121.96V120.03H112.32V88.9599L103.72 105.09C100.32 111.46 91.1899 111.46 87.7899 105.09L79.1799 88.9199V120.03H69.5399V69.3899L81.1299 69.3799ZM52.0399 84.9999C51.0999 74.0099 46.9399 68.4299 41.5899 68.4299C35.6999 68.4299 32.8999 73.4999 33.3699 79.4099C33.8799 85.8699 39.1399 87.3499 48.1299 90.6399C54.0999 92.8199 62.0899 96.0599 62.0899 105.18C62.0899 113.29 55.1299 116.55 42.9299 116.55C29.5399 116.55 22.6699 110.79 22.6699 102.86H31.9299C32.0899 108.45 32.9799 120.97 42.9299 120.97C48.9999 120.97 52.5799 115.44 52.7199 110.15C52.9199 102.46 44.9499 100.35 38.2199 97.7899C30.7399 94.9499 24.8899 91.7799 24.6899 84.9899C24.6899 78.2199 30.0499 72.3799 42.4899 72.3799C54.9299 72.3799 60.9899 78.6299 61.4399 84.9899H52.0399V84.9999Z" fill="black"/>
</g>
<defs>
<clipPath id="clip0_40000299_498">
<rect width="189.42" height="189.42" fill="white"/>
</clipPath>
</defs>
</svg>
