<svg width="973" height="169" viewBox="0 0 973 169" fill="none" xmlns="http://www.w3.org/2000/svg">
<g clip-path="url(#clip0_40000299_472)">
<path d="M225.927 19.3109H276.717V3.58237H206.473V24.2138C206.473 35.1048 215.287 43.93 226.162 43.93H272.539V59.0964H226.162C215.287 59.0964 206.473 67.9216 206.473 78.8126V100.974H276.717V85.2452H225.927V19.3109ZM112.272 3.5693L132.849 101C141.087 101 139.533 101 147.772 101L168.414 3.5693L190.688 3.59545V100.987H172.174V41.2367L155.645 72.2623C149.117 84.5131 131.582 84.5131 125.054 72.2623L108.512 41.1713V101H89.9976V3.59545L112.272 3.5693ZM56.4166 33.6143C54.6148 12.473 46.6113 1.75195 36.3489 1.75195C25.0421 1.75195 19.6629 11.4924 20.5638 22.8802C21.543 35.3009 31.6486 38.1642 48.9222 44.4661C60.3857 48.663 75.74 54.8995 75.74 72.4323C75.74 88.0301 62.3703 94.3058 38.9341 94.3058C13.2 94.3189 0 83.2448 0 67.987H17.7828C18.0961 78.7342 19.7935 102.817 38.921 102.817C50.5804 102.817 57.448 92.1877 57.7222 82.0158C58.1139 67.2287 42.7988 63.1625 29.873 58.2465C15.511 52.7814 4.26943 46.7018 3.8908 33.6143C3.8908 20.5922 14.1792 9.37434 38.0724 9.37434C61.9655 9.37434 73.5988 21.3897 74.4735 33.6143H56.4166Z" fill="#9245FF"/>
<path d="M402.959 101V31.9799H422.413V42.4133C424.267 38.9878 426.578 36.2684 429.359 34.268C432.14 32.2807 435.286 31.2739 438.812 31.2739H447.285V48.5322H436.866C433.432 48.5322 430.664 49.4212 428.523 51.1732C426.395 52.9382 424.841 55.5531 423.875 59.0309C422.896 62.5087 422.413 66.7579 422.413 71.7654V100.987H402.959V101Z" fill="black"/>
<path d="M507.749 31.9799V41.9949C505.856 38.9617 503.428 36.4514 500.451 34.4771C496.234 31.6923 491.403 30.3064 485.932 30.3064C479.169 30.3064 473.359 31.8623 468.489 34.9609C463.632 38.0726 459.898 42.3349 457.3 47.7608C454.701 53.1866 453.409 59.3839 453.409 66.3395C453.409 73.2951 454.701 79.4009 457.3 84.9183C459.885 90.4357 463.619 94.7764 468.489 97.9273C473.346 101.078 479.169 102.66 485.932 102.66C490.006 102.66 493.57 101.889 496.625 100.359C499.68 98.8295 502.279 96.8814 504.407 94.5149C505.673 93.1159 506.77 91.6777 507.736 90.2265V100.987H526.355V31.9799H507.736H507.749ZM505.177 76.786C503.65 79.6623 501.587 81.8588 498.988 83.3886C496.39 84.9183 493.518 85.6897 490.371 85.6897C485.736 85.6897 481.728 83.9508 478.359 80.473C474.978 76.9952 473.294 72.2884 473.294 66.3526C473.294 60.4168 474.978 55.6446 478.359 52.2976C481.741 48.9636 485.749 47.2901 490.371 47.2901C493.518 47.2901 496.39 48.0615 498.988 49.5912C501.574 51.1209 503.637 53.3043 505.177 56.1284C506.705 58.9525 507.475 62.4172 507.475 66.4964C507.475 70.5756 506.705 73.9227 505.177 76.786Z" fill="black"/>
<path d="M587.223 101H610.986L578.058 61.7636L605.985 31.9801H583.333L559.857 59.0703V0.82373H540.403V101H559.857V81.1791L566.529 74.0667L587.223 101Z" fill="black"/>
<path d="M665.575 31.9799V41.9949C663.682 38.9617 661.253 36.4514 658.276 34.4771C654.059 31.6923 649.228 30.3064 643.758 30.3064C636.994 30.3064 631.184 31.8623 626.314 34.9609C621.457 38.0726 617.723 42.3349 615.125 47.7608C612.527 53.1866 611.234 59.3839 611.234 66.3395C611.234 73.2951 612.527 79.4009 615.125 84.9183C617.71 90.4357 621.444 94.7764 626.314 97.9273C631.184 101.078 636.994 102.66 643.758 102.66C647.831 102.66 651.396 101.889 654.451 100.359C657.506 98.8295 660.104 96.8814 662.232 94.5149C663.499 93.1159 664.596 91.6777 665.562 90.2265V100.987H684.18V31.9799H665.562H665.575ZM663.003 76.786C661.475 79.6623 659.412 81.8588 656.814 83.3886C654.216 84.9183 651.343 85.6897 648.197 85.6897C643.562 85.6897 639.553 83.9508 636.185 80.473C632.803 76.9952 631.119 72.2884 631.119 66.3526C631.119 60.4168 632.803 55.6446 636.185 52.2976C639.566 48.9636 643.575 47.2901 648.197 47.2901C651.343 47.2901 654.216 48.0615 656.814 49.5912C659.399 51.1209 661.462 53.3043 663.003 56.1284C664.53 58.9525 665.301 62.4172 665.301 66.4964C665.301 70.5756 664.53 73.9227 663.003 76.786Z" fill="black"/>
<path d="M698.229 101V31.9799H717.683V42.1387C719.902 38.5171 722.944 35.6408 726.783 33.5096C730.621 31.3785 735.139 30.3064 740.335 30.3064C749.044 30.3064 755.716 33.0651 760.338 38.5825C764.973 44.0999 767.284 52.0622 767.284 62.4433V100.987H747.83V64.2607C747.83 58.5995 746.694 54.2718 744.422 51.2516C742.15 48.2445 738.56 46.7279 733.651 46.7279C729.015 46.7279 725.203 48.3753 722.187 51.67C719.171 54.9648 717.67 59.5277 717.67 65.372V100.987H698.216L698.229 101Z" fill="black"/>
<path d="M781.319 131.607V31.98H800.773V41.4459C802.993 38.478 805.891 35.8762 809.456 33.6536C813.02 31.4309 817.629 30.3196 823.283 30.3196C829.667 30.3196 835.412 31.9016 840.517 35.0525C845.609 38.2035 849.643 42.518 852.607 47.9962C855.571 53.4744 857.059 59.6847 857.059 66.6403C857.059 73.5959 855.571 79.6755 852.607 85.1406C849.643 90.6188 845.609 94.9072 840.517 98.0059C835.425 101.118 829.68 102.673 823.283 102.673C818.191 102.673 813.764 101.745 810.017 99.8886C806.27 98.032 803.189 95.4302 800.773 92.0962V131.607H781.319ZM818.687 85.6898C822.303 85.6898 825.515 84.853 828.348 83.1795C831.169 81.506 833.375 79.2441 834.942 76.3677C836.522 73.4913 837.305 70.2489 837.305 66.6273C837.305 63.0056 836.522 59.6063 834.942 56.6776C833.362 53.762 831.169 51.4609 828.348 49.7874C825.515 48.1139 822.303 47.2771 818.687 47.2771C815.07 47.2771 811.884 48.1139 809.103 49.7874C806.322 51.4609 804.142 53.7359 802.575 56.5992C800.995 59.4755 800.212 62.7703 800.212 66.4834C800.212 70.1966 800.995 73.4913 802.575 76.3677C804.155 79.2441 806.322 81.519 809.103 83.1795C811.884 84.853 815.083 85.6898 818.687 85.6898Z" fill="black"/>
<path d="M920.135 31.9799V41.9949C918.242 38.9617 915.813 36.4514 912.836 34.4771C908.619 31.6923 903.788 30.3064 898.318 30.3064C891.554 30.3064 885.744 31.8623 880.874 34.9609C876.017 38.0726 872.283 42.3349 869.685 47.7608C867.087 53.1866 865.794 59.3839 865.794 66.3395C865.794 73.2951 867.087 79.4009 869.685 84.9183C872.27 90.4357 876.004 94.7764 880.874 97.9273C885.731 101.078 891.554 102.66 898.318 102.66C902.391 102.66 905.956 101.889 909.011 100.359C912.066 98.8295 914.664 96.8814 916.792 94.5149C918.059 93.1159 919.156 91.6777 920.122 90.2265V100.987H938.74V31.9799H920.122H920.135ZM917.563 76.786C916.035 79.6623 913.972 81.8588 911.374 83.3886C908.776 84.9183 905.903 85.6897 902.757 85.6897C898.122 85.6897 894.113 83.9508 890.745 80.473C887.363 76.9952 885.679 72.2884 885.679 66.3526C885.679 60.4168 887.363 55.6446 890.745 52.2976C894.126 48.9636 898.135 47.2901 902.757 47.2901C905.903 47.2901 908.776 48.0615 911.374 49.5912C913.959 51.1209 916.022 53.3043 917.563 56.1284C919.09 58.9525 919.861 62.4172 919.861 66.4964C919.861 70.5756 919.09 73.9227 917.563 76.786Z" fill="black"/>
<path d="M972.243 31.98H952.789V100.987H972.243V31.98Z" fill="black"/>
<path d="M320.456 101V3.59546H357.549C365.422 3.59546 371.924 4.91598 377.068 7.55701C382.212 10.198 386.051 13.8197 388.597 18.4088C391.143 22.9979 392.422 28.1754 392.422 33.9281C392.422 39.2102 391.195 44.1523 388.74 48.7414C386.286 53.3306 382.486 57.0437 377.342 59.8678C372.198 62.6919 365.605 64.117 357.549 64.117H339.91V100.987H320.456V101ZM339.91 48.4015H356.308C362.053 48.4015 366.218 47.1071 368.816 44.5053C371.415 41.9035 372.707 38.3865 372.707 33.9281C372.707 29.4697 371.415 25.8351 368.816 23.2855C366.218 20.736 362.053 19.4547 356.308 19.4547H339.91V48.4015Z" fill="black"/>
<path d="M962.516 20.9975C968.306 20.9975 973 16.2971 973 10.4988C973 4.70046 968.306 0 962.516 0C956.725 0 952.031 4.70046 952.031 10.4988C952.031 16.2971 956.725 20.9975 962.516 20.9975Z" fill="black"/>
<path d="M10.6932 162.136C9.7531 162.136 8.90443 161.992 8.12105 161.691C7.35073 161.391 6.65874 161.012 6.08426 160.528C5.49672 160.044 5.0528 159.547 4.7264 159.024H4.59583V161.6H1.82788V137.046H4.73945V144.289L4.60889 146.721H4.73945C5.0528 146.172 5.50978 145.662 6.09731 145.178C6.68485 144.695 7.36378 144.316 8.13411 144.015C8.90443 143.714 9.76615 143.57 10.7062 143.57C12.2991 143.57 13.7353 143.976 14.9887 144.773C16.2421 145.571 17.2344 146.669 17.9656 148.068C18.6967 149.467 19.0623 151.062 19.0623 152.866C19.0623 154.67 18.6967 156.279 17.9656 157.665C17.2344 159.063 16.2421 160.162 14.9887 160.959C13.7353 161.757 12.2991 162.162 10.7062 162.162L10.6932 162.136ZM10.3929 159.495C11.3982 159.495 12.3383 159.22 13.213 158.684C14.0878 158.148 14.8059 157.377 15.3412 156.37C15.8765 155.363 16.1507 154.187 16.1507 152.84C16.1507 151.493 15.8765 150.291 15.3412 149.284C14.8059 148.277 14.1009 147.519 13.213 146.983C12.3383 146.447 11.3851 146.172 10.3929 146.172C9.40058 146.172 8.44746 146.447 7.57268 146.983C6.69791 147.519 5.97981 148.29 5.43144 149.284C4.88307 150.277 4.60889 151.467 4.60889 152.84C4.60889 154.213 4.88307 155.39 5.43144 156.383C5.97981 157.377 6.69791 158.148 7.57268 158.684C8.44746 159.22 9.40058 159.495 10.3929 159.495Z" fill="black"/>
<path d="M27.4445 160.868L20.0415 144.093H23.1881L28.6718 157.089H28.9459L27.4445 160.868ZM26.7916 168.111C26.7264 168.268 26.648 168.451 26.5566 168.647C26.4652 168.843 26.413 168.961 26.3869 169.013H23.3709C23.5014 168.712 23.6581 168.386 23.8148 168.033C23.9715 167.68 24.1673 167.248 24.4023 166.751C24.5329 166.451 24.6635 166.176 24.781 165.928C24.8985 165.679 25.029 165.391 25.1727 165.091C25.3163 164.79 25.4991 164.398 25.708 163.94L28.1103 158.724L28.7632 157.115L34.0379 144.119H37.1845L28.1365 165.012C28.0451 165.222 27.9014 165.548 27.7056 165.993C27.5097 166.437 27.327 166.869 27.1572 167.3C26.9875 167.719 26.87 168.006 26.7916 168.137V168.111Z" fill="black"/>
<path d="M59.7068 162.136C57.9051 162.136 56.2208 161.809 54.654 161.155C53.0873 160.502 51.7294 159.599 50.5674 158.423C49.4054 157.259 48.4914 155.899 47.8386 154.344C47.1858 152.788 46.8594 151.114 46.8594 149.297C46.8594 147.48 47.1858 145.806 47.8386 144.25C48.4914 142.694 49.3923 141.335 50.5674 140.171C51.7425 139.007 53.1003 138.092 54.654 137.438C56.2208 136.785 57.9051 136.458 59.7068 136.458C61.0125 136.458 62.2137 136.615 63.2973 136.915C64.3941 137.229 65.3994 137.674 66.3264 138.275C67.2534 138.863 68.1021 139.596 68.8724 140.472L65.6214 143.623C65.1383 143.047 64.616 142.564 64.0285 142.145C63.441 141.727 62.8012 141.413 62.0962 141.191C61.3911 140.968 60.5947 140.851 59.733 140.851C58.2054 140.851 56.8214 141.204 55.568 141.897C54.3276 142.59 53.3353 143.57 52.6042 144.825C51.873 146.081 51.5074 147.571 51.5074 149.284C51.5074 150.997 51.873 152.461 52.6042 153.729C53.3353 154.997 54.3276 155.978 55.568 156.684C56.8083 157.377 58.2054 157.73 59.733 157.73C61.1039 157.73 62.3181 157.442 63.3757 156.867C64.4333 156.292 65.3733 155.507 66.1959 154.5L69.4861 157.625C68.6896 158.58 67.7887 159.403 66.7834 160.083C65.7781 160.763 64.6813 161.273 63.4932 161.613C62.3051 161.953 61.0386 162.123 59.6938 162.123L59.7068 162.136Z" fill="black"/>
<path d="M77.6984 162.136C76.4711 162.136 75.3744 161.887 74.4213 161.404C73.4682 160.907 72.7239 160.214 72.1756 159.325C71.6272 158.436 71.353 157.403 71.353 156.239C71.353 155.076 71.6664 153.991 72.2931 153.115C72.9198 152.239 73.7685 151.572 74.826 151.088C75.8836 150.604 77.0717 150.369 78.3774 150.369C79.0824 150.369 79.7352 150.408 80.3097 150.487C80.8972 150.565 81.4064 150.67 81.8634 150.774C82.3204 150.879 82.699 151.01 82.9993 151.153V150.395C82.9993 149.454 82.6468 148.682 81.9417 148.081C81.2367 147.479 80.2575 147.166 79.0302 147.166C78.2076 147.166 77.4112 147.349 76.6539 147.728C75.8836 148.107 75.2569 148.604 74.7477 149.218L71.8753 146.957C72.4498 146.224 73.1026 145.597 73.8598 145.087C74.6171 144.577 75.4527 144.185 76.3667 143.923C77.2806 143.662 78.2337 143.531 79.2391 143.531C81.9156 143.531 83.9394 144.146 85.3364 145.388C86.7334 146.617 87.4254 148.434 87.4254 150.8V161.574H83.0124V159.796H82.7382C82.4118 160.201 82.0201 160.593 81.537 160.946C81.0539 161.299 80.4925 161.587 79.8658 161.809C79.226 162.031 78.5079 162.136 77.7115 162.136H77.6984ZM78.756 158.645C79.6699 158.645 80.4403 158.449 81.067 158.044C81.6937 157.638 82.1768 157.128 82.5032 156.488C82.8296 155.847 82.9993 155.167 82.9993 154.461C82.5032 154.213 81.9287 154.004 81.2889 153.86C80.6492 153.716 79.9963 153.638 79.3305 153.638C78.0118 153.638 77.0978 153.886 76.5886 154.396C76.0794 154.906 75.8314 155.52 75.8314 156.252C75.8314 156.945 76.0794 157.508 76.5625 157.965C77.0456 158.423 77.7768 158.645 78.7429 158.645H78.756Z" fill="black"/>
<path d="M91.499 161.587V144.093H95.7162V146.42H95.9904C96.2907 145.871 96.6824 145.388 97.1785 144.969C97.6747 144.551 98.2492 144.211 98.902 143.962C99.5679 143.714 100.273 143.583 101.03 143.583C101.487 143.583 101.892 143.622 102.257 143.688C102.623 143.753 102.936 143.845 103.211 143.962V148.46C102.728 148.277 102.257 148.12 101.787 148.002C101.317 147.885 100.821 147.819 100.299 147.819C99.4112 147.819 98.6409 148.042 97.988 148.486C97.3352 148.931 96.8391 149.532 96.4996 150.304C96.1602 151.075 95.9904 151.938 95.9904 152.892V161.6H91.499V161.587Z" fill="black"/>
<path d="M113.421 162.136C111.658 162.136 110.091 161.731 108.707 160.933C107.323 160.136 106.24 159.037 105.456 157.638C104.673 156.239 104.268 154.657 104.268 152.866C104.268 151.193 104.66 149.65 105.43 148.238C106.2 146.826 107.271 145.688 108.616 144.825C109.961 143.963 111.501 143.544 113.238 143.544C115.105 143.544 116.685 143.949 117.964 144.747C119.244 145.545 120.21 146.617 120.876 147.95C121.542 149.284 121.868 150.774 121.868 152.396C121.868 152.762 121.868 153.075 121.829 153.337C121.803 153.598 121.777 153.795 121.764 153.899H106.762V150.709H117.546C117.52 150.317 117.416 149.925 117.207 149.506C116.998 149.101 116.711 148.722 116.345 148.369C115.98 148.029 115.536 147.741 115.027 147.532C114.517 147.31 113.93 147.205 113.264 147.205C112.402 147.205 111.606 147.427 110.888 147.885C110.17 148.343 109.608 148.983 109.19 149.794C108.786 150.604 108.577 151.572 108.577 152.696C108.577 153.821 108.799 154.854 109.229 155.664C109.66 156.475 110.248 157.089 110.992 157.521C111.736 157.952 112.559 158.148 113.473 158.148C114.543 158.148 115.444 157.913 116.175 157.442C116.907 156.972 117.481 156.383 117.886 155.677L121.516 157.455C120.693 158.894 119.622 160.031 118.291 160.868C116.959 161.705 115.34 162.123 113.394 162.123L113.421 162.136Z" fill="black"/>
<path d="M137.458 162.136C135.656 162.136 133.972 161.809 132.405 161.155C130.838 160.502 129.48 159.599 128.318 158.423C127.156 157.259 126.242 155.899 125.589 154.344C124.937 152.788 124.61 151.114 124.61 149.297C124.61 147.48 124.937 145.806 125.589 144.25C126.242 142.694 127.143 141.335 128.318 140.171C129.493 139.007 130.851 138.092 132.405 137.438C133.972 136.785 135.656 136.458 137.458 136.458C138.763 136.458 139.964 136.615 141.048 136.915C142.145 137.229 143.15 137.674 144.077 138.275C145.004 138.863 145.853 139.596 146.623 140.472L143.372 143.623C142.889 143.047 142.367 142.564 141.779 142.145C141.192 141.727 140.552 141.413 139.847 141.191C139.142 140.968 138.345 140.851 137.484 140.851C135.956 140.851 134.572 141.204 133.319 141.897C132.078 142.59 131.086 143.57 130.355 144.825C129.624 146.081 129.258 147.571 129.258 149.284C129.258 150.997 129.624 152.461 130.355 153.729C131.086 154.997 132.078 155.978 133.319 156.684C134.559 157.377 135.956 157.73 137.484 157.73C138.855 157.73 140.069 157.442 141.126 156.867C142.184 156.292 143.124 155.507 143.947 154.5L147.237 157.625C146.44 158.58 145.539 159.403 144.534 160.083C143.529 160.763 142.432 161.273 141.244 161.613C140.056 161.953 138.789 162.123 137.445 162.123L137.458 162.136Z" fill="black"/>
<path d="M156.546 162.136C154.405 162.136 152.786 161.469 151.715 160.149C150.644 158.828 150.109 157.011 150.109 154.736V144.106H154.601V154.187C154.601 155.376 154.888 156.305 155.475 156.985C156.063 157.665 156.807 157.991 157.721 157.991C158.635 157.991 159.366 157.769 159.98 157.325C160.593 156.88 161.063 156.279 161.403 155.52C161.729 154.762 161.899 153.925 161.899 153.01V144.093H166.39V161.587H162.173V159.39H161.899C161.56 159.939 161.116 160.423 160.567 160.829C160.019 161.234 159.405 161.561 158.739 161.796C158.06 162.018 157.342 162.136 156.559 162.136H156.546Z" fill="black"/>
<path d="M180.413 162.136C179.564 162.136 178.807 162.005 178.115 161.757C177.423 161.508 176.835 161.181 176.352 160.776C175.856 160.384 175.465 159.952 175.164 159.495H174.89V161.587H170.673V137.033H175.164V143.753L174.89 146.224H175.164C175.465 145.767 175.856 145.335 176.352 144.917C176.849 144.498 177.436 144.172 178.115 143.923C178.794 143.675 179.564 143.544 180.413 143.544C182.006 143.544 183.442 143.936 184.708 144.734C185.975 145.518 186.98 146.617 187.724 148.002C188.469 149.401 188.834 151.01 188.834 152.84C188.834 154.67 188.469 156.279 187.724 157.677C186.98 159.076 185.975 160.162 184.708 160.946C183.442 161.731 182.006 162.136 180.413 162.136ZM179.63 157.991C180.478 157.991 181.262 157.782 181.98 157.351C182.698 156.919 183.285 156.331 183.729 155.546C184.173 154.775 184.395 153.873 184.395 152.84C184.395 151.807 184.173 150.879 183.729 150.134C183.285 149.388 182.698 148.787 181.98 148.368C181.262 147.95 180.478 147.728 179.63 147.728C178.781 147.728 178.037 147.937 177.319 148.368C176.6 148.8 176.013 149.388 175.569 150.147C175.125 150.918 174.903 151.807 174.903 152.84C174.903 153.873 175.125 154.762 175.569 155.533C176.013 156.305 176.6 156.906 177.319 157.338C178.037 157.769 178.807 157.991 179.63 157.991Z" fill="black"/>
</g>
<defs>
<clipPath id="clip0_40000299_472">
<rect width="973" height="169" fill="white"/>
</clipPath>
</defs>
</svg>
